<?xml version="1.0" encoding="UTF-8"?>
<svg width="22px" height="18px" viewBox="0 0 22 18" version="1.1" xmlns="http://www.w3.org/2000/svg" xmlns:xlink="http://www.w3.org/1999/xlink">
    <!-- Generator: Sketch 51.2 (57519) - http://www.bohemiancoding.com/sketch -->
    <title>Group 9</title>
    <desc>Created with Sketch.</desc>
    <defs></defs>
    <g id="DESIGNS-DESKTOP" stroke="none" stroke-width="1" fill="none" fill-rule="evenodd">
        <g id="02---Content-FORM" transform="translate(-829.000000, -232.000000)">
            <g id="CONTENT" transform="translate(355.000000, 179.000000)">
                <g id="FORM" transform="translate(0.000000, 37.000000)">
                    <g id="CAT" transform="translate(366.000000, 0.000000)">
                        <g id="Group-9" transform="translate(109.000000, 17.000000)">
                            <path d="M10,9 C8.9,9 8,8.98 8,10 C8,11.02 10,12 10,12 C10,12 12,11.02 12,10 C12,8.98 11.1,9 10,9" id="Fill-1" fill="#E9E9E9"></path>
                            <path d="M10,9 C8.9,9 8,8.98 8,10 C8,11.02 10,12 10,12 C10,12 12,11.02 12,10 C12,8.98 11.1,9 10,9 Z" id="Stroke-3" fill="#E32125"></path>
                            <path d="M15.71992,12 C15.04012,13.26 13.01992,14 9.99992,14 C6.97992,14 4.95992,13.26 4.27992,12 L4.99992,12 L4.99992,11 L3.99992,11 C3.99992,10.68 3.99992,10.28 4.01992,9.8 L4.99992,10 L4.99992,9 L4.07992,8.82 C4.34012,5.96 5.41992,2 9.99992,2 C11.35992,2 15.19992,2.02 15.88012,8.82 L14.99992,9 L14.99992,10 L15.95992,9.8 C15.98012,10.18 15.99992,10.56 15.99992,11 L14.99992,11 L14.99992,12 L15.71992,12 Z M4.75992,2 C4.47992,2.28 4.21992,2.58 3.99992,2.88 L3.99992,2 L4.75992,2 Z M15.99992,2 L15.99992,2.88 C15.78012,2.56 15.51992,2.28 15.24012,2 L15.99992,2 Z M17.99992,9.4 L19.99992,9 L19.99992,8 L17.99992,8.4 L17.99992,0 L9.99992,0 L1.99992,0 L1.99992,8.4 L-8e-05,8 L-8e-05,9 L1.99992,9.4 L1.99992,10.5 L1.99992,11 L-8e-05,11 L-8e-05,12 L2.11992,12 C2.59992,13.88 4.51992,16 9.99992,16 C15.48012,16 17.39992,13.88 17.88012,12 L19.99992,12 L19.99992,11 L17.99992,11 L17.99992,10.5 L17.99992,9.4 Z" id="Fill-5" fill="#E32125"></path>
                            <path d="M15.71992,12 C15.04012,13.26 13.01992,14 9.99992,14 C6.97992,14 4.95992,13.26 4.27992,12 L4.99992,12 L4.99992,11 L3.99992,11 C3.99992,10.68 3.99992,10.28 4.01992,9.8 L4.99992,10 L4.99992,9 L4.07992,8.82 C4.34012,5.96 5.41992,2 9.99992,2 C11.35992,2 15.19992,2.02 15.88012,8.82 L14.99992,9 L14.99992,10 L15.95992,9.8 C15.98012,10.18 15.99992,10.56 15.99992,11 L14.99992,11 L14.99992,12 L15.71992,12 Z M4.75992,2 C4.47992,2.28 4.21992,2.58 3.99992,2.88 L3.99992,2 L4.75992,2 Z M15.99992,2 L15.99992,2.88 C15.78012,2.56 15.51992,2.28 15.24012,2 L15.99992,2 Z M17.99992,9.4 L19.99992,9 L19.99992,8 L17.99992,8.4 L17.99992,0 L9.99992,0 L1.99992,0 L1.99992,8.4 L-8e-05,8 L-8e-05,9 L1.99992,9.4 L1.99992,10.5 L1.99992,11 L-8e-05,11 L-8e-05,12 L2.11992,12 C2.59992,13.88 4.51992,16 9.99992,16 C15.48012,16 17.39992,13.88 17.88012,12 L19.99992,12 L19.99992,11 L17.99992,11 L17.99992,10.5 L17.99992,9.4 Z" id="Stroke-7" stroke="#FFFFFF" stroke-width="0.5"></path>
                        </g>
                    </g>
                </g>
            </g>
        </g>
    </g>
</svg>