<?xml version="1.0" encoding="UTF-8"?>
<svg width="20px" height="18px" viewBox="0 0 20 18" version="1.1" xmlns="http://www.w3.org/2000/svg" xmlns:xlink="http://www.w3.org/1999/xlink">
    <!-- Generator: Sketch 51.2 (57519) - http://www.bohemiancoding.com/sketch -->
    <title>Group 9</title>
    <desc>Created with Sketch.</desc>
    <defs></defs>
    <g id="DESIGNS-DESKTOP" stroke="none" stroke-width="1" fill="none" fill-rule="evenodd">
        <g id="02---Content-FORM" transform="translate(-545.000000, -232.000000)" fill="#EC001A">
            <g id="CONTENT" transform="translate(355.000000, 179.000000)">
                <g id="FORM" transform="translate(0.000000, 37.000000)">
                    <g id="DOG" transform="translate(95.000000, 0.000000)">
                        <g id="Group-9" transform="translate(95.000000, 16.000000)">
                            <path d="M17.1545756,6.14147727 C17.3943677,7.0785 17.5588081,8.13661364 17.6567855,9.37615909 L17.7048651,9.98222727 L17.8553664,9.39354545 C17.9753635,8.9235 18.0660683,8.16381818 17.8147614,7.21431818 C17.6874918,6.77679545 17.5323441,6.40145455 17.3398236,6.06456818 L16.9689236,5.41554545 L17.1545756,6.14147727 Z M2.6601856,6.06456818 C2.4676651,6.40145455 2.31251741,6.77659091 2.18605588,7.21186364 C1.94505173,8.21209091 2.05656413,9.00613636 2.14423873,9.39109091 L2.29130581,10.0358182 L2.34342574,9.37615909 C2.44120111,8.13681818 2.60543948,7.07890909 2.84543356,6.14147727 L3.03128756,5.41595455 L2.6601856,6.06456818 Z M10.0000046,2.06590909 C8.11702073,2.06590909 6.75442807,2.77036364 5.83424874,4.21956818 L5.82455201,4.23490909 L4.30559957,11.1663409 C4.28297387,11.5746136 4.28297387,11.9832955 4.28297387,12.4159091 C4.28297387,14.2572273 7.00795717,15.9340909 10.0000046,15.9340909 C12.992254,15.9340909 15.7170353,14.2572273 15.7170353,12.4159091 C15.7170353,11.9832955 15.7170353,11.5746136 15.6966318,11.1831136 L14.1754572,4.23490909 L14.1657604,4.21956818 C13.2455811,2.77036364 11.8829885,2.06590909 10.0000046,2.06590909 Z M10.0000046,18 C8.06772901,18 6.1231305,17.4368864 4.66458062,16.4548636 C3.10280095,15.4032955 2.24262014,13.9690227 2.24262014,12.4159091 L2.24262014,12.3136364 L2.14161253,12.3136364 C1.20001959,12.3136364 0.35498993,11.1683864 0.0871177482,9.52875 C-0.353275431,6.83570455 0.79154482,3.11931818 5.46698507,1.50811364 L5.48476241,1.50197727 L5.49930751,1.48970455 C6.66655145,0.501136364 8.18085754,0 10.0000046,0 C11.8191516,0 13.3332557,0.501136364 14.5007017,1.48970455 L14.5152468,1.50197727 L14.5328221,1.50811364 C19.2082623,3.11931818 20.3532846,6.83570455 19.9128914,9.52875 C19.6448172,11.1683864 18.8001916,12.3136364 17.8583966,12.3136364 L17.757389,12.3136364 L17.757389,12.4159091 C17.757389,13.9690227 16.8974102,15.4032955 15.3354286,16.4548636 C13.8768787,17.4368864 11.9322802,18 10.0000046,18 Z" id="Fill-1"></path>
                            <path d="M10,13 C8.89716981,13 8,12.3271585 8,11.5000961 C8,10.6728415 8.89716981,10 10,10 C11.1028302,10 12,10.6728415 12,11.5000961 C12,12.3271585 11.1028302,13 10,13" id="Fill-5"></path>
                            <path d="M10,10 C8.8954955,10 8,10.6717065 8,11.5000904 C8,12.3284742 8.8954955,13 10,13 C11.1045045,13 12,12.3284742 12,11.5000904 C12,10.6717065 11.1045045,10 10,10 M10,10.180712 C11.0034234,10.180712 11.8198198,10.7725438 11.8198198,11.5000904 C11.8198198,12.2272755 11.0034234,12.819288 10,12.819288 C8.99657658,12.819288 8.18018018,12.2272755 8.18018018,11.5000904 C8.18018018,10.7725438 8.99657658,10.180712 10,10.180712" id="Fill-7"></path>
                        </g>
                    </g>
                </g>
            </g>
        </g>
    </g>
</svg>