<?xml version="1.0" encoding="UTF-8"?>
<svg width="20px" height="18px" viewBox="0 0 20 18" version="1.1" xmlns="http://www.w3.org/2000/svg" xmlns:xlink="http://www.w3.org/1999/xlink">
    <!-- Generator: Sketch 51.2 (57519) - http://www.bohemiancoding.com/sketch -->
    <title>Group 9</title>
    <desc>Created with Sketch.</desc>
    <defs></defs>
    <g id="DESIGNS-DESKTOP" stroke="none" stroke-width="1" fill="none" fill-rule="evenodd">
        <g id="02---Content-FORM" transform="translate(-545.000000, -241.000000)" fill="#D9D9D9">
            <g id="CONTENT" transform="translate(450.000000, 179.000000)">
                <g id="DOG" transform="translate(0.000000, 46.000000)">
                    <g id="Group-9" transform="translate(95.000000, 16.000000)">
                        <path d="M17.0109505,6.20508 C17.246,7.12128 17.4071881,8.15588 17.5032277,9.36788 L17.5503564,9.96048 L17.6978812,9.38488 C17.815505,8.92528 17.9044158,8.18248 17.6580792,7.25408 C17.5333267,6.82628 17.3812475,6.45928 17.1925347,6.12988 L16.8289703,5.49528 L17.0109505,6.20508 Z M2.80322772,6.12988 C2.61451485,6.45928 2.46243564,6.82608 2.33847525,7.25168 C2.10223762,8.22968 2.21154455,9.00608 2.29748515,9.38248 L2.44164356,10.01288 L2.49273267,9.36788 C2.58857426,8.15608 2.74956436,7.12168 2.98481188,6.20508 L3.1669901,5.49568 L2.80322772,6.12988 Z M9.99788119,2.22008 C8.15213861,2.22008 6.81649505,2.90888 5.91451485,4.32588 L5.9050099,4.34088 L4.41609901,11.11828 C4.39392079,11.51748 4.39392079,11.91708 4.39392079,12.34008 C4.39392079,14.14048 7.0650099,15.78008 9.99788119,15.78008 C12.9309505,15.78008 15.6018416,14.14048 15.6018416,12.34008 C15.6018416,11.91708 15.6018416,11.51748 15.5818416,11.13468 L14.0907525,4.34088 L14.0812475,4.32588 C13.1792673,2.90888 11.8436238,2.22008 9.99788119,2.22008 Z M9.99788119,17.80008 C8.10382178,17.80008 6.19768317,17.24948 4.7679802,16.28928 C3.23708911,15.26108 2.39392079,13.85868 2.39392079,12.34008 L2.39392079,12.24008 L2.29491089,12.24008 C1.37194059,12.24008 0.543623762,11.12028 0.281049505,9.51708 C-0.150633663,6.88388 0.971544554,3.25008 5.55451485,1.67468 L5.57194059,1.66868 L5.58619802,1.65668 C6.73035644,0.69008 8.21471287,0.20008 9.99788119,0.20008 C11.7810495,0.20008 13.2652079,0.69008 14.4095644,1.65668 L14.4238218,1.66868 L14.4410495,1.67468 C19.0240198,3.25008 20.146396,6.88388 19.7147129,9.51708 C19.4519406,11.12028 18.6240198,12.24008 17.7008515,12.24008 L17.6018416,12.24008 L17.6018416,12.34008 C17.6018416,13.85868 16.7588713,15.26108 15.2277822,16.28928 C13.7980792,17.24948 11.8919406,17.80008 9.99788119,17.80008 Z" id="Fill-1"></path>
                        <path d="M9.99788119,13.34004 C8.84045545,13.34004 7.89887129,12.64024 7.89887129,11.78004 C7.89887129,10.91964 8.84045545,10.21984 9.99788119,10.21984 C11.1553069,10.21984 12.0968911,10.91964 12.0968911,11.78004 C12.0968911,12.64024 11.1553069,13.34004 9.99788119,13.34004" id="Fill-5"></path>
                        <path d="M9.99788119,10.11992 C8.7840198,10.11992 7.79986139,10.86332 7.79986139,11.78012 C7.79986139,12.69692 8.7840198,13.44012 9.99788119,13.44012 C11.2117426,13.44012 12.195901,12.69692 12.195901,11.78012 C12.195901,10.86332 11.2117426,10.11992 9.99788119,10.11992 M9.99788119,10.31992 C11.1006535,10.31992 11.9978812,10.97492 11.9978812,11.78012 C11.9978812,12.58492 11.1006535,13.24012 9.99788119,13.24012 C8.89510891,13.24012 7.99788119,12.58492 7.99788119,11.78012 C7.99788119,10.97492 8.89510891,10.31992 9.99788119,10.31992" id="Fill-7"></path>
                    </g>
                </g>
            </g>
        </g>
    </g>
</svg>