<?xml version="1.0" encoding="utf-8"?>
<!-- Generator: Adobe Illustrator 22.1.0, SVG Export Plug-In . SVG Version: 6.00 Build 0)  -->
<svg version="1.1" id="Layer_1" xmlns="http://www.w3.org/2000/svg" xmlns:xlink="http://www.w3.org/1999/xlink" x="0px" y="0px"
	 viewBox="0 0 60 60" style="enable-background:new 0 0 60 60;" xml:space="preserve">
<style type="text/css">
	.st0{fill:none;stroke:#D8D8D8;stroke-width:2.5;stroke-linejoin:round;stroke-miterlimit:10;}
	.st1{fill:none;stroke:#D8D8D8;stroke-width:2.5;stroke-miterlimit:10;}
	.st2{fill:none;}
	.st3{fill:#EB1D25;}
	.st4{fill:#FFFFFF;stroke:#EB1D25;stroke-width:2;stroke-miterlimit:10;}
</style>
<g>
	<line class="st0" x1="-62.6" y1="52.7" x2="-68.3" y2="47"/>
	<path class="st1" d="M-20.2,11.1l-6.5-6.5c-1.6-1.6-4.1-1.6-5.7,0l-3.3,3.3L-23.5,20l3.3-3.3C-18.6,15.2-18.6,12.6-20.2,11.1z"/>
	<polyline class="st0" points="-27.2,23.7 -52.8,49.2 -71.8,56.1 -64.9,37.2 -39.2,11.5 	"/>
	<line class="st0" x1="-58.1" y1="42.4" x2="-33.1" y2="17.5"/>
	<line class="st0" x1="-52.1" y1="48.4" x2="-64" y2="36.5"/>
</g>
<g>
	<path class="st2" d="M48.1,51H50c1.1,0,2-0.9,2-2V19H8v30c0,1.1,0.9,2,2,2h18H48.1z M42,25c1.1,0,2,0.9,2,2s-0.9,2-2,2s-2-0.9-2-2
		S40.9,25,42,25z M42,33c1.1,0,2,0.9,2,2s-0.9,2-2,2s-2-0.9-2-2S40.9,33,42,33z M34,25c1.1,0,2,0.9,2,2s-0.9,2-2,2s-2-0.9-2-2
		S32.9,25,34,25z M34,33c1.1,0,2,0.9,2,2s-0.9,2-2,2s-2-0.9-2-2S32.9,33,34,33z M26,33c1.1,0,2,0.9,2,2s-0.9,2-2,2s-2-0.9-2-2
		S24.9,33,26,33z M18,45c-1.1,0-2-0.9-2-2s0.9-2,2-2s2,0.9,2,2S19.1,45,18,45z M18,37c-1.1,0-2-0.9-2-2s0.9-2,2-2s2,0.9,2,2
		S19.1,37,18,37z M26,45c-1.1,0-2-0.9-2-2s0.9-2,2-2s2,0.9,2,2S27.1,45,26,45z"/>
	<path class="st2" d="M50,9h-8v5c0,0.6-0.4,1-1,1s-1-0.4-1-1V9H20v5c0,0.6-0.4,1-1,1s-1-0.4-1-1V9h-8c-1.1,0-2,0.9-2,2v6h44v-6
		C52,9.9,51.1,9,50,9z"/>
	<circle class="st3" cx="34" cy="27" r="2"/>
	<circle class="st3" cx="42" cy="27" r="2"/>
	<circle class="st3" cx="26" cy="35" r="2"/>
	<circle class="st3" cx="34" cy="35" r="2"/>
	<circle class="st3" cx="18" cy="35" r="2"/>
	<circle class="st3" cx="42" cy="35" r="2"/>
	<circle class="st3" cx="26" cy="43" r="2"/>
	<circle class="st3" cx="18" cy="43" r="2"/>
	<path class="st3" d="M50,7h-8V6c0-0.6-0.4-1-1-1s-1,0.4-1,1v1H20V6c0-0.6-0.4-1-1-1s-1,0.4-1,1v1h-8c-2.2,0-4,1.8-4,4v38
		c0,2.2,1.8,4,4,4h18v-2H10c-1.1,0-2-0.9-2-2V19h44v30c0,1.1-0.9,2-2,2h-1.9v2H50c2.2,0,4-1.8,4-4V11C54,8.8,52.2,7,50,7z M52,17H8
		v-6c0-1.1,0.9-2,2-2h8v5c0,0.6,0.4,1,1,1s1-0.4,1-1V9h20v5c0,0.6,0.4,1,1,1s1-0.4,1-1V9h8c1.1,0,2,0.9,2,2V17z"/>
	<line class="st4" x1="26.7" y1="52" x2="49.6" y2="52"/>
</g>
</svg>
