<?xml version="1.0" encoding="UTF-8"?>
<svg width="16px" height="18px" viewBox="0 0 16 18" version="1.1" xmlns="http://www.w3.org/2000/svg" xmlns:xlink="http://www.w3.org/1999/xlink">
    <!-- Generator: Sketch 52.1 (67048) - http://www.bohemiancoding.com/sketch -->
    <title>Shape</title>
    <desc>Created with Sketch.</desc>
    <g id="DESIGNS-DESKTOP" stroke="none" stroke-width="1" fill="none" fill-rule="evenodd">
        <g id="10---Bedankt" transform="translate(-651.000000, -594.000000)" fill="#808285" fill-rule="nonzero">
            <g id="CONTENT" transform="translate(-2.000000, 120.000000)">
                <g id="CTA" transform="translate(634.000000, 469.500000)">
                    <g id="CTA-opnieuw" transform="translate(19.000000, 0.000000)">
                        <path d="M7.98886534,21.9999699 C11.5905365,22.0099283 14.7533496,19.5494198 15.7114455,15.9921934 C16.6695415,12.434967 15.1859752,8.66075475 12.08905,6.77677146 C8.99212487,4.89278818 5.04773651,5.36495881 2.45811241,7.92966148 L2.45811241,5.62962851 C2.45811241,5.28189429 2.18297881,5 1.84358431,5 C1.50418981,5 1.22905621,5.28189429 1.22905621,5.62962851 L1.22905621,9.4073996 C1.22899248,9.6785223 1.39833242,9.91924229 1.64939343,10.0049171 L5.33656204,11.2641741 C5.65898682,11.3740581 6.00730596,11.1953371 6.11455462,10.8649896 C6.22180328,10.5346421 6.04736858,10.1777639 5.72494381,10.0678799 L3.00258431,9.13980748 C5.26496388,6.6155924 8.99304488,6.1760351 11.7559007,8.10775262 C14.5187566,10.0394701 15.4783613,13.7565363 14.0089966,16.835207 C12.5396319,19.9138776 9.08698359,21.4203341 5.90238006,20.3722789 C2.71777653,19.3242237 0.767167703,16.0395515 1.32246448,12.6600605 C1.36120911,12.4372683 1.28027823,12.2103101 1.1104797,12.0655817 C0.940681173,11.9208533 0.708137106,11.88062 0.501369789,11.9601975 C0.294602472,12.0397749 0.14542136,12.2269207 0.110615059,12.4503942 C0.037037262,12.9012865 3.90799696e-05,13.3576484 0,13.8147992 C0.005079701,18.3331866 3.57884264,21.9947654 7.98886534,21.9999699 Z" id="Shape"></path>
                    </g>
                </g>
            </g>
        </g>
    </g>
</svg>