<?xml version="1.0" encoding="UTF-8"?>
<svg width="43px" height="43px" viewBox="0 0 43 43" version="1.1" xmlns="http://www.w3.org/2000/svg" xmlns:xlink="http://www.w3.org/1999/xlink">
    <!-- Generator: Sketch 52 (66869) - http://www.bohemiancoding.com/sketch -->
    <title>Fill 186</title>
    <desc>Created with Sketch.</desc>
    <g id="Symbols" stroke="none" stroke-width="1" fill="none" fill-rule="evenodd">
        <g id="Fill-186" fill="#EC001A">
            <g id="Fill-185">
                <path d="M30.0489375,17.1153437 C30.057,17.3048125 30.062375,17.4942813 30.062375,17.6864375 C30.062375,23.5142812 25.6253125,30.2357187 17.51175,30.2357187 C15.0204375,30.2357187 12.7024687,29.5060625 10.75,28.2550312 C11.0953437,28.2953437 11.4460625,28.3155 11.8021562,28.3155 C13.8688437,28.3155 15.77025,27.611375 17.280625,26.4275312 C15.3496563,26.3925937 13.7210312,25.117375 13.1593437,23.365125 C13.4294375,23.4161875 13.7049062,23.4430625 13.9897813,23.4430625 C14.3915625,23.4430625 14.78125,23.3893125 15.152125,23.2885312 C13.1338125,22.8840625 11.6140313,21.1009062 11.6140313,18.9643437 L11.6140313,18.9079062 C12.2079687,19.2384688 12.88925,19.4373438 13.6121875,19.4601875 C12.4283437,18.6687187 11.6489687,17.31825 11.6489687,15.7890625 C11.6489687,14.980125 11.8666562,14.22225 12.2469375,13.5705312 C14.4224687,16.2392188 17.673,17.9955 21.33875,18.1795937 C21.2635,17.8570937 21.2245312,17.5198125 21.2245312,17.1744688 C21.2245312,14.73825 23.1998437,12.7629375 25.6347187,12.7629375 C26.9045625,12.7629375 28.0507812,13.2990937 28.8543437,14.1564062 C29.8594687,13.958875 30.804125,13.5920312 31.6560625,13.0867813 C31.3268437,14.1160937 30.62675,14.980125 29.7170312,15.5270313 C30.6092812,15.4195312 31.4585313,15.1830313 32.25,14.8323125 C31.65875,15.7165 30.9102813,16.4931875 30.0489375,17.1153437 M21.5,0 C9.62528125,0 0,9.62528125 0,21.5 C0,33.373375 9.62528125,43 21.5,43 C33.3747187,43 43,33.373375 43,21.5 C43,9.62528125 33.3747187,0 21.5,0" id="Fill-184"></path>
            </g>
        </g>
    </g>
</svg>