<?xml version="1.0" encoding="UTF-8"?>
<svg width="43px" height="43px" viewBox="0 0 43 43" version="1.1" xmlns="http://www.w3.org/2000/svg" xmlns:xlink="http://www.w3.org/1999/xlink">
    <!-- Generator: Sketch 52 (66869) - http://www.bohemiancoding.com/sketch -->
    <title>Group 6</title>
    <desc>Created with Sketch.</desc>
    <g id="Symbols" stroke="none" stroke-width="1" fill="none" fill-rule="evenodd">
        <g id="Group-6">
            <g id="Group-5">
                <path d="M26.7579594,25.2100938 C26.5362406,25.83225 25.4719906,26.3993125 24.9600219,26.4759063 C24.5018031,26.5444375 23.9213031,26.5726563 23.2830219,26.3710938 C22.8960219,26.2474688 22.4001781,26.0835313 21.7659281,25.8094063 C19.0945531,24.6564688 17.3490219,21.967625 17.2159906,21.79025 C17.0829594,21.612875 16.1288969,20.3470625 16.1288969,19.0369063 C16.1288969,17.72675 16.8168969,17.08175 17.0614594,16.8156875 C17.3046781,16.549625 17.5935844,16.4824375 17.7709594,16.4824375 C17.9483344,16.4824375 18.1257094,16.4837813 18.2815844,16.4918438 C18.4455219,16.4999063 18.6645531,16.4300313 18.8808969,16.9487188 C19.1026156,17.4821875 19.6347406,18.7923438 19.7019281,18.925375 C19.7677719,19.0584063 19.8121156,19.2142813 19.7234281,19.3916563 C19.6347406,19.5690313 19.5903969,19.6805625 19.4573656,19.8364375 C19.3243344,19.9909688 19.1778656,20.183125 19.0582719,20.3027188 C18.9252406,20.4344063 18.7854906,20.5795313 18.9413656,20.8455938 C19.0972406,21.1116563 19.6307094,21.98375 20.4221781,22.6892188 C21.4393969,23.59625 22.2980531,23.8770938 22.5641156,24.0114688 C22.8301781,24.1445 22.9860531,24.1216563 23.1405844,23.9442813 C23.2964594,23.7669063 23.8070844,23.1675938 23.9844594,22.9001875 C24.1618344,22.634125 24.3392094,22.6784688 24.5837719,22.7671563 C24.8269906,22.8558438 26.1371469,23.4995 26.4032094,23.633875 C26.6692719,23.7669063 26.8466469,23.83275 26.9138344,23.9442813 C26.9796781,24.0558125 26.9796781,24.5879375 26.7579594,25.2100938 M21.5482406,12.5492813 C16.6623656,12.5492813 12.6875531,16.5214063 12.6862094,21.40325 C12.6862094,23.0762188 13.1538344,24.7061875 14.0407094,26.1157813 L14.2516781,26.450375 L13.3567406,29.718375 L16.7093969,28.8395625 L17.0318969,29.030375 C18.3917719,29.8379688 19.9505219,30.2652813 21.5401781,30.2652813 L21.5442094,30.2652813 C26.4260531,30.2652813 30.3995219,26.2931563 30.4022094,21.4099688 C30.4022094,19.043625 29.4830844,16.8197188 27.8101156,15.1454063 C26.1371469,13.4724375 23.9132406,12.5492813 21.5482406,12.5492813" id="Fill-232" fill="#444444"></path>
                <path d="M26.7579594,25.2100938 C26.5362406,25.83225 25.4719906,26.3993125 24.9600219,26.4759063 C24.5018031,26.5444375 23.9213031,26.5726563 23.2830219,26.3710938 C22.8960219,26.2474688 22.4001781,26.0835313 21.7659281,25.8094063 C19.0945531,24.6564688 17.3490219,21.967625 17.2159906,21.79025 C17.0829594,21.612875 16.1288969,20.3470625 16.1288969,19.0369063 C16.1288969,17.72675 16.8168969,17.08175 17.0614594,16.8156875 C17.3046781,16.549625 17.5935844,16.4824375 17.7709594,16.4824375 C17.9483344,16.4824375 18.1257094,16.4837813 18.2815844,16.4918438 C18.4455219,16.4999063 18.6645531,16.4300313 18.8808969,16.9487188 C19.1026156,17.4821875 19.6347406,18.7923438 19.7019281,18.925375 C19.7677719,19.0584063 19.8121156,19.2142813 19.7234281,19.3916563 C19.6347406,19.5690313 19.5903969,19.6805625 19.4573656,19.8364375 C19.3243344,19.9909688 19.1778656,20.183125 19.0582719,20.3027188 C18.9252406,20.4344063 18.7854906,20.5795313 18.9413656,20.8455938 C19.0972406,21.1116563 19.6307094,21.98375 20.4221781,22.6892188 C21.4393969,23.59625 22.2980531,23.8770938 22.5641156,24.0114688 C22.8301781,24.1445 22.9860531,24.1216563 23.1405844,23.9442813 C23.2964594,23.7669063 23.8070844,23.1675938 23.9844594,22.9001875 C24.1618344,22.634125 24.3392094,22.6784688 24.5837719,22.7671563 C24.8269906,22.8558438 26.1371469,23.4995 26.4032094,23.633875 C26.6692719,23.7669063 26.8466469,23.83275 26.9138344,23.9442813 C26.9796781,24.0558125 26.9796781,24.5879375 26.7579594,25.2100938 M21.5482406,12.5492813 C16.6623656,12.5492813 12.6875531,16.5214063 12.6862094,21.40325 C12.6862094,23.0762188 13.1538344,24.7061875 14.0407094,26.1157813 L14.2516781,26.450375 L13.3567406,29.718375 L16.7093969,28.8395625 L17.0318969,29.030375 C18.3917719,29.8379688 19.9505219,30.2652813 21.5401781,30.2652813 L21.5442094,30.2652813 C26.4260531,30.2652813 30.3995219,26.2931563 30.4022094,21.4099688 C30.4022094,19.043625 29.4830844,16.8197188 27.8101156,15.1454063 C26.1371469,13.4724375 23.9132406,12.5492813 21.5482406,12.5492813" id="Fill-232" fill="#EC001A"></path>
                <path d="M21.5443437,32.0645625 L21.5403125,32.0645625 C19.7558125,32.0645625 18.0035625,31.6170938 16.4475,30.7678438 L10.7970313,32.25 L12.3100938,26.7285313 C11.3775312,25.1133438 10.8857188,23.2804688 10.8870625,21.4019063 C10.88975,15.528375 15.6694688,10.75 21.5443437,10.75 C24.3944375,10.75 27.0711875,11.8599375 29.0827813,13.8742188 C31.094375,15.8871563 32.2029687,18.5639063 32.201625,21.4113125 C32.1989375,27.2848438 27.417875,32.0645625 21.5443437,32.0645625 M21.5,-3.55271368e-15 C9.62528125,-3.55271368e-15 -3.55271368e-15,9.62528125 -3.55271368e-15,21.5 C-3.55271368e-15,33.373375 9.62528125,43 21.5,43 C33.373375,43 43,33.373375 43,21.5 C43,9.62528125 33.373375,-3.55271368e-15 21.5,-3.55271368e-15" id="Fill-233" fill="#EC001A"></path>
            </g>
        </g>
    </g>
</svg>