<?xml version="1.0" standalone="no"?>
<!DOCTYPE svg PUBLIC "-//W3C//DTD SVG 20010904//EN"
 "http://www.w3.org/TR/2001/REC-SVG-20010904/DTD/svg10.dtd">
<svg version="1.0" xmlns="http://www.w3.org/2000/svg"
 width="928.000000pt" height="928.000000pt" viewBox="0 0 928.000000 928.000000"
 preserveAspectRatio="xMidYMid meet">
<metadata>
Created by potrace 1.11, written by Peter Selinger 2001-2013
</metadata>
<g transform="translate(0.000000,928.000000) scale(0.100000,-0.100000)"
fill="#000000" stroke="none">
<path d="M4640 7153 c-19 -2 -99 -18 -140 -28 -3 -1 -22 -9 -44 -18 -21 -9
-40 -17 -42 -17 -6 0 -88 -54 -107 -70 -78 -66 -184 -200 -170 -214 4 -3 1 -6
-5 -6 -7 0 -11 -3 -10 -7 1 -5 -4 -24 -11 -43 -17 -44 -24 -69 -25 -97 -1 -13
-4 -23 -7 -23 -9 0 -4 -188 5 -220 4 -14 9 -34 10 -45 2 -11 5 -21 6 -22 1 -2
3 -6 4 -10 8 -45 103 -198 133 -214 12 -7 20 -16 18 -20 -3 -4 4 -10 15 -14
11 -3 20 -12 20 -18 0 -7 22 -25 48 -42 89 -55 177 -90 248 -98 23 -2 46 -7
53 -11 6 -4 11 -2 11 4 0 6 5 8 13 3 16 -10 38 -10 60 0 10 5 17 4 17 -3 0 -6
4 -9 8 -6 5 3 24 8 43 11 59 10 107 25 156 48 65 31 133 75 133 87 0 6 5 10
11 10 9 0 51 42 84 82 128 161 167 388 100 583 -16 44 -31 82 -34 85 -3 3 -12
17 -20 31 -25 50 -97 129 -162 178 -35 27 -67 47 -71 44 -5 -2 -8 0 -8 5 0 5
-8 12 -17 15 -10 3 -44 15 -75 26 -81 30 -171 42 -248 34z"/>
<path d="M2576 6883 c-1 -1 -17 -5 -36 -8 -69 -12 -126 -29 -157 -47 -18 -10
-33 -14 -33 -10 0 4 -4 2 -8 -3 -4 -6 -30 -25 -58 -43 -55 -35 -125 -106 -157
-159 -10 -18 -23 -33 -28 -33 -5 0 -8 -3 -7 -7 1 -5 -9 -30 -21 -58 -12 -27
-23 -58 -24 -67 -1 -10 -6 -18 -11 -18 -5 0 -7 -2 -4 -5 3 -3 0 -29 -6 -58
-18 -83 -10 -206 18 -282 5 -11 14 -37 22 -58 8 -20 26 -56 41 -80 14 -23 25
-43 24 -45 -1 -2 12 -16 29 -32 16 -15 30 -34 30 -41 0 -7 3 -10 6 -6 4 3 23
-10 43 -29 20 -19 48 -40 64 -47 15 -6 27 -15 27 -19 0 -10 162 -69 176 -64 6
2 16 0 21 -5 10 -10 170 -19 179 -10 3 3 13 6 22 7 37 1 102 16 108 25 3 5 10
7 15 4 5 -4 9 -1 9 4 0 6 3 10 8 8 12 -3 92 35 92 45 0 4 6 8 14 8 8 0 22 7
31 16 9 9 34 32 56 50 23 19 38 34 35 34 -4 0 5 12 19 28 24 24 90 129 90 142
0 3 5 19 12 35 30 81 30 80 33 210 2 79 -7 147 -27 195 -4 8 -7 17 -8 20 -7
25 -41 93 -62 125 -56 85 -218 219 -275 229 -7 1 -22 7 -33 13 -26 14 -135 34
-146 27 -5 -3 -9 -2 -9 3 0 7 -107 12 -114 6z"/>
<path d="M6644 6879 c-2 -4 -22 -9 -45 -13 -23 -4 -47 -10 -53 -14 -6 -4 -13
-7 -16 -8 -42 -9 -152 -77 -208 -128 -41 -38 -132 -161 -132 -179 0 -7 -4 -17
-9 -22 -9 -10 -27 -63 -36 -104 -3 -11 -7 -31 -10 -43 -9 -39 -5 -233 5 -233
1 0 3 -11 6 -25 4 -24 15 -53 35 -92 5 -10 9 -25 9 -33 0 -8 3 -15 8 -15 4 0
16 -17 27 -37 25 -48 142 -166 187 -188 18 -10 41 -25 52 -34 10 -9 19 -15 20
-13 1 4 29 -5 61 -18 11 -5 34 -12 50 -15 128 -31 258 -22 373 25 71 28 102
44 102 53 0 4 6 7 13 7 7 0 30 16 50 35 20 19 42 35 47 35 6 0 10 5 10 10 0 6
11 22 24 35 25 25 96 137 100 158 2 7 6 21 10 32 5 11 12 32 18 47 5 15 11 45
11 67 1 23 5 41 8 41 9 0 4 94 -6 110 -6 9 -4 11 5 5 9 -5 11 -4 6 4 -4 6 -9
23 -12 36 -10 60 -14 73 -37 132 -25 61 -60 121 -82 135 -5 4 -6 8 -2 8 14 0
-97 110 -110 110 -7 0 -13 3 -13 8 0 11 -80 58 -140 82 -53 21 -86 30 -122 33
-10 1 -18 5 -18 10 0 5 -6 4 -13 -2 -8 -6 -17 -8 -20 -4 -9 8 -148 10 -153 2z"/>
<path d="M678 6084 c-4 -3 -17 -7 -30 -9 -48 -6 -91 -16 -107 -24 -9 -5 -19
-9 -24 -9 -17 -1 -77 -27 -77 -33 0 -4 -10 -9 -22 -13 -13 -3 -35 -17 -50 -31
-15 -14 -30 -25 -33 -25 -9 0 -78 -71 -107 -110 -83 -111 -124 -246 -119 -390
3 -90 5 -100 14 -100 4 0 6 -4 3 -8 -7 -11 27 -119 42 -134 7 -7 12 -18 12
-26 0 -7 6 -20 12 -27 30 -33 38 -45 38 -54 0 -6 8 -15 18 -20 9 -6 13 -11 9
-11 -23 -1 129 -115 198 -149 134 -66 256 -81 400 -51 75 16 172 54 186 73 3
5 9 7 12 5 3 -1 22 11 41 29 20 17 36 29 36 26 0 -20 114 124 143 182 31 59
65 164 61 188 -1 9 1 17 5 17 11 0 3 188 -9 220 -1 3 -2 8 -1 12 0 4 -6 23
-14 42 -9 20 -12 36 -8 36 5 0 3 4 -2 8 -6 4 -22 29 -35 56 -14 28 -34 61 -45
75 -40 49 -113 121 -124 121 -6 0 -11 4 -11 8 0 5 -21 20 -47 33 -27 13 -51
27 -54 32 -3 4 -30 15 -60 23 -79 22 -90 24 -132 29 -21 2 -42 7 -47 10 -6 3
-10 2 -10 -3 0 -10 -43 -10 -51 1 -3 4 -8 5 -11 1z"/>
<path d="M8667 6084 c-3 -3 -32 -7 -64 -8 -47 -3 -140 -24 -183 -42 -3 -1 -15
-5 -27 -9 -13 -4 -23 -11 -23 -16 0 -5 -5 -9 -11 -9 -37 0 -219 -166 -219
-200 0 -6 -4 -10 -10 -10 -5 0 -10 -7 -10 -15 0 -8 -5 -15 -11 -15 -5 0 -8 -4
-5 -8 3 -5 -4 -23 -14 -40 -11 -17 -21 -41 -23 -54 -2 -13 -7 -30 -10 -38 -17
-41 -25 -177 -15 -240 12 -77 35 -151 60 -193 15 -26 28 -50 28 -53 0 -6 66
-90 85 -109 43 -43 196 -143 220 -145 3 0 6 0 8 -1 104 -32 264 -44 325 -25
11 4 29 8 39 10 10 2 25 6 33 8 31 7 177 85 198 106 12 12 27 22 32 22 6 0 10
7 10 17 0 9 3 13 6 10 4 -3 24 15 45 41 46 58 101 157 92 166 -3 3 -2 6 4 6
13 0 23 34 39 135 9 49 8 140 -2 180 -3 17 -7 42 -9 56 -3 38 -68 178 -103
220 -19 25 -89 94 -124 124 -65 57 -198 109 -305 119 -17 2 -35 6 -41 10 -5 3
-12 3 -15 0z"/>
<path d="M4616 5602 c-2 -2 -15 -5 -30 -7 -62 -11 -73 -14 -101 -25 -50 -19
-119 -54 -133 -67 -7 -7 -17 -13 -21 -13 -12 0 -131 -119 -131 -130 0 -6 -4
-10 -8 -10 -7 0 -82 -131 -84 -147 -1 -10 -6 -27 -15 -50 -22 -60 -23 -277 -2
-323 1 -3 3 -9 4 -15 1 -5 9 -27 18 -49 9 -21 17 -42 17 -46 0 -7 56 -94 80
-124 40 -49 132 -129 146 -126 4 1 10 -2 13 -7 14 -19 110 -61 174 -77 90 -22
194 -22 287 0 41 10 78 17 83 16 4 -1 7 3 7 8 0 6 9 10 19 10 11 0 21 5 23 10
2 6 13 12 25 13 12 0 20 3 18 6 -3 2 10 14 29 25 65 41 176 157 176 184 0 7 4
12 8 12 13 0 69 134 64 153 -1 4 1 7 6 7 10 0 14 47 15 155 1 100 -7 154 -30
204 -8 18 -16 39 -17 46 -3 23 -73 129 -113 171 -101 109 -240 180 -368 190
-22 1 -42 4 -45 5 -9 3 -111 4 -114 1z"/>
<path d="M6337 5394 c-3 -4 -25 -8 -49 -9 -72 -5 -123 -15 -126 -25 -2 -5 -9
-7 -15 -4 -7 2 -46 -13 -88 -35 -70 -36 -96 -54 -153 -106 -35 -33 -96 -111
-96 -124 0 -6 -5 -11 -11 -11 -5 0 -7 -4 -4 -10 3 -5 2 -10 -3 -10 -9 0 -27
-47 -24 -62 1 -5 -3 -8 -9 -8 -6 0 -9 -6 -6 -14 3 -8 2 -16 -3 -18 -5 -2 -10
-14 -12 -28 -2 -14 -6 -29 -9 -35 -3 -5 -5 -27 -5 -48 1 -20 -1 -37 -5 -37 -6
0 -4 -54 5 -120 16 -119 64 -231 133 -306 12 -13 20 -24 17 -24 -6 0 22 -25
91 -84 31 -27 114 -71 128 -68 4 1 7 -2 7 -6 0 -5 24 -14 53 -22 142 -37 294
-32 400 13 20 9 37 13 37 9 0 -4 4 -2 8 3 4 6 23 18 42 28 58 29 180 136 180
157 0 6 5 10 10 10 6 0 10 7 10 15 0 8 5 15 10 15 6 0 10 7 10 15 0 8 4 15 8
15 7 0 52 96 59 128 8 32 12 47 13 47 4 0 12 67 14 120 2 70 -13 175 -33 220
-30 69 -65 135 -72 135 -4 0 -11 10 -15 23 -8 24 -93 110 -140 142 -87 58
-196 100 -288 111 -28 4 -54 8 -57 10 -3 2 -9 1 -12 -2z"/>
<path d="M2948 5384 c-3 -3 -16 -7 -29 -9 -13 -3 -33 -7 -44 -9 -26 -6 -89
-30 -95 -36 -3 -3 -27 -16 -53 -30 -55 -28 -191 -156 -182 -170 4 -6 1 -10 -5
-10 -5 0 -18 -16 -27 -35 -9 -19 -20 -35 -24 -35 -4 0 -11 -15 -15 -32 -10
-40 -9 -39 -17 -60 -17 -44 -20 -55 -24 -83 -10 -79 -4 -245 9 -245 5 0 7 -3
6 -7 -5 -20 57 -173 70 -173 4 0 13 -12 19 -27 17 -38 143 -163 164 -163 4 0
14 -6 21 -12 22 -21 120 -67 158 -74 8 -1 31 -6 50 -10 71 -14 241 -7 290 13
8 3 20 7 25 8 58 13 186 95 243 155 54 58 62 68 62 80 0 5 4 10 9 10 5 0 17
20 28 45 10 25 21 45 26 45 4 0 7 8 7 18 0 10 5 23 12 30 7 7 9 12 5 12 -3 0
-2 11 3 26 15 39 22 84 22 150 0 67 -11 163 -20 179 -4 6 -7 15 -8 20 -2 8
-13 38 -30 75 -1 3 -5 15 -9 28 -4 12 -11 22 -16 22 -5 0 -9 7 -9 15 0 8 -5
15 -12 15 -6 0 -8 3 -5 7 4 3 -6 19 -22 34 -16 15 -28 29 -27 31 2 2 -12 18
-30 36 -19 18 -34 30 -34 28 0 -3 -11 5 -24 17 -24 22 -132 82 -138 77 -2 -2
-14 3 -28 10 -13 7 -40 17 -60 23 -39 10 -234 19 -242 11z"/>
<path d="M1438 4745 c-2 -2 -16 -6 -33 -8 -84 -15 -205 -62 -205 -79 0 -5 -6
-8 -13 -8 -21 0 -171 -132 -161 -142 2 -2 -10 -19 -26 -36 -16 -18 -27 -32
-24 -32 2 0 -3 -11 -12 -25 -9 -14 -12 -25 -8 -25 5 0 5 -4 -1 -8 -11 -8 -41
-90 -51 -142 -12 -62 -7 -179 11 -263 18 -84 87 -209 150 -270 72 -70 92 -87
103 -87 6 0 12 -4 14 -8 5 -12 130 -70 179 -83 45 -11 235 -15 279 -6 14 4 38
9 55 12 16 3 32 9 35 13 3 4 14 9 25 10 11 2 22 7 25 10 3 4 22 15 43 24 20
10 37 23 37 28 0 6 5 8 10 5 6 -3 13 1 16 9 3 9 11 16 16 16 14 0 116 110 124
133 3 9 10 17 15 17 6 0 7 5 4 10 -3 6 -3 10 2 10 14 0 66 134 78 201 11 55 7
217 -5 239 -6 11 -9 20 -6 20 5 0 -29 89 -55 145 -14 29 -23 42 -66 91 -13 14
-23 27 -23 29 0 14 -112 105 -128 105 -6 0 -12 3 -14 8 -3 7 -76 47 -87 47 -3
1 -22 6 -41 13 -19 6 -48 14 -65 18 -30 6 -192 13 -197 9z"/>
<path d="M7770 4741 c0 -4 -12 -8 -27 -9 -54 -4 -169 -50 -201 -79 -7 -7 -18
-13 -23 -13 -5 0 -32 -22 -61 -50 -29 -27 -56 -50 -60 -50 -5 0 -8 -5 -8 -10
0 -6 -9 -21 -20 -33 -29 -31 -87 -155 -105 -224 -22 -85 -22 -208 0 -293 14
-53 28 -90 35 -95 6 -3 10 -17 10 -31 0 -14 7 -27 15 -30 8 -4 15 -11 15 -16
0 -23 91 -125 155 -173 46 -36 141 -85 149 -78 3 3 6 1 6 -5 0 -7 3 -11 8 -10
4 1 18 -2 32 -5 14 -4 34 -8 45 -10 11 -1 25 -5 30 -8 6 -3 29 -6 53 -5 23 1
42 -3 42 -7 0 -5 6 -5 13 0 6 4 30 8 52 9 22 1 40 3 40 4 0 2 55 11 78 13 9 1
17 5 17 9 0 4 6 8 13 8 24 0 121 51 167 88 38 30 82 74 129 129 33 37 92 176
106 248 18 87 6 232 -26 317 -11 29 -21 58 -22 63 -1 6 -4 12 -8 15 -3 3 -19
28 -37 57 -49 81 -167 188 -229 207 -13 4 -23 12 -23 17 0 5 -11 9 -24 9 -14
0 -28 5 -31 10 -4 6 -11 8 -16 5 -5 -4 -9 -1 -9 6 0 7 -3 10 -6 7 -3 -4 -20
-2 -37 4 -37 11 -237 19 -237 9z"/>
<path d="M4550 4000 c0 -3 -46 -6 -103 -6 -102 -1 -195 -7 -317 -20 -36 -4
-74 -7 -85 -8 -11 -1 -26 -6 -34 -10 -10 -7 -12 -6 -6 4 5 9 4 11 -4 6 -12 -8
-23 -10 -106 -21 -187 -25 -169 -21 -390 -67 -82 -17 -160 -32 -172 -32 -13
-1 -23 -4 -23 -7 0 -4 -17 -10 -37 -14 -21 -5 -42 -9 -48 -11 -18 -5 -59 -15
-84 -20 -14 -3 -28 -7 -32 -10 -4 -2 -47 -15 -96 -29 -48 -14 -97 -30 -108
-35 -23 -10 -192 -70 -215 -75 -8 -2 -16 -4 -17 -5 -2 -2 -6 -3 -10 -4 -5 -1
-29 -12 -55 -24 -26 -12 -50 -22 -53 -22 -3 0 -44 -18 -91 -40 -47 -22 -91
-40 -99 -40 -7 0 -15 -3 -17 -8 -4 -11 -188 -103 -188 -94 0 4 -4 1 -9 -7 -8
-12 -44 -35 -161 -100 -19 -10 -46 -28 -59 -40 -13 -11 -28 -18 -32 -15 -5 3
-9 2 -9 -3 0 -4 -24 -24 -53 -43 -28 -19 -60 -44 -69 -54 -10 -10 -18 -16 -18
-12 0 9 -39 -39 -64 -77 -32 -51 -39 -175 -13 -225 8 -15 22 -42 31 -59 10
-18 30 -40 47 -50 16 -10 29 -21 29 -25 0 -4 9 -8 20 -8 11 0 20 -4 20 -10 0
-5 10 -10 23 -10 12 0 29 -4 37 -9 8 -6 18 -7 23 -4 5 3 28 7 51 8 22 1 54 7
70 14 35 14 176 109 194 130 6 8 12 11 12 7 0 -4 19 6 43 22 63 44 245 141
251 134 3 -3 6 0 6 6 0 6 10 14 23 18 12 4 52 22 90 40 37 18 67 30 67 28 0
-3 10 2 22 10 12 9 30 16 40 16 10 0 18 4 18 8 0 5 23 15 50 22 28 7 50 17 50
22 0 4 10 8 23 8 12 0 31 6 42 14 11 7 27 13 35 14 8 0 52 14 98 31 45 17 85
31 90 31 4 0 25 6 47 12 22 6 43 11 48 10 4 -1 7 3 7 10 0 6 3 9 6 5 3 -3 26
0 50 8 24 7 44 11 44 9 0 -2 19 3 42 12 22 8 43 12 46 9 2 -2 12 0 22 5 19 10
315 70 370 75 19 2 35 4 35 5 0 2 52 9 185 25 30 3 69 8 85 10 210 27 821 28
1035 1 19 -2 62 -7 95 -10 33 -3 73 -8 90 -11 16 -4 53 -8 81 -9 29 -2 57 -7
64 -11 6 -4 14 -5 17 -2 3 3 15 2 28 -3 20 -7 58 -15 125 -25 8 -1 26 -5 40
-8 14 -4 39 -9 55 -11 17 -2 30 -5 30 -6 0 -1 11 -4 25 -7 38 -7 55 -11 58
-13 1 -2 7 -4 12 -5 6 -1 12 -4 15 -5 3 -1 14 -4 25 -5 11 -1 21 -3 23 -5 2
-2 34 -9 57 -14 8 -1 22 -5 30 -9 8 -4 24 -8 35 -10 11 -2 27 -6 35 -9 8 -3
85 -28 170 -56 85 -28 173 -59 195 -68 22 -10 49 -19 60 -21 10 -2 22 -8 25
-14 4 -5 11 -9 16 -8 5 2 29 -8 54 -20 25 -13 47 -24 50 -24 17 -1 60 -23 60
-30 0 -4 5 -5 10 -2 6 3 10 1 10 -4 0 -6 3 -10 8 -9 4 1 17 -3 30 -10 12 -7
22 -9 22 -5 0 4 4 3 8 -3 4 -6 27 -20 52 -33 52 -26 54 -26 143 -80 38 -23 72
-41 78 -41 5 0 9 -4 9 -10 0 -5 7 -10 15 -10 8 0 15 -4 15 -10 0 -5 5 -10 10
-10 12 0 67 -37 90 -60 25 -25 114 -67 138 -65 12 1 22 -1 22 -5 0 -9 91 5
135 21 19 7 35 17 35 21 0 4 6 8 14 8 16 0 86 87 86 107 0 7 4 13 8 13 9 0 15
39 14 105 -1 110 -42 171 -174 260 -40 28 -76 55 -80 60 -5 7 -8 7 -8 0 0 -6
-3 -5 -8 1 -10 16 -129 89 -237 145 -33 17 -68 39 -79 48 -10 9 -21 15 -25 14
-3 -1 -42 16 -86 37 -44 21 -84 39 -88 38 -4 0 -18 7 -30 14 -29 19 -140 63
-149 60 -5 -1 -8 2 -8 7 0 9 -57 27 -72 23 -5 -1 -8 3 -8 9 0 5 -4 8 -9 4 -5
-3 -12 -1 -16 5 -3 5 -15 10 -26 10 -10 0 -19 5 -19 11 0 5 -4 8 -8 5 -5 -3
-20 1 -35 9 -15 8 -27 12 -27 10 0 -3 -30 6 -67 20 -37 13 -70 22 -75 19 -4
-3 -8 0 -8 5 0 6 -3 10 -7 10 -5 -1 -10 -1 -13 1 -3 1 -16 3 -30 6 -14 2 -32
7 -40 11 -8 3 -21 5 -27 4 -7 -1 -13 3 -13 8 0 6 -7 8 -15 5 -8 -4 -15 -2 -15
3 0 5 -6 10 -12 11 -35 3 -86 13 -151 31 -40 11 -85 22 -102 25 -35 6 -70 13
-93 20 -9 3 -33 7 -52 10 -56 9 -92 16 -170 31 -14 3 -50 7 -80 9 -30 3 -62 7
-70 10 -8 3 -35 8 -60 10 -25 3 -61 8 -80 10 -96 14 -285 28 -407 30 -51 0
-93 3 -93 6 0 3 -23 5 -50 5 -28 0 -50 -3 -50 -7 0 -4 -10 -4 -22 1 -13 5 -33
5 -46 0 -15 -6 -21 -5 -17 1 4 6 -2 7 -18 1 -14 -6 -28 -7 -31 -4 -7 8 -66 10
-66 3z"/>
<path d="M4430 3331 c0 -3 -28 -6 -63 -5 -34 0 -70 -3 -79 -8 -10 -5 -19 -4
-23 2 -4 6 -11 7 -17 4 -5 -4 -31 -8 -57 -10 -25 -3 -59 -7 -76 -9 -16 -3 -55
-8 -85 -10 -30 -3 -71 -8 -90 -11 -19 -3 -48 -8 -65 -9 -16 -2 -41 -6 -55 -9
-40 -9 -73 -16 -105 -21 -81 -14 -106 -19 -159 -33 -20 -6 -36 -8 -36 -5 0 3
-7 0 -15 -7 -8 -7 -15 -10 -15 -7 0 3 -20 0 -45 -7 -25 -8 -45 -12 -45 -9 0 3
-6 0 -13 -6 -8 -6 -17 -8 -20 -4 -4 3 -12 1 -19 -5 -7 -6 -17 -11 -23 -11 -5
-1 -28 -7 -50 -13 -50 -14 -65 -18 -87 -20 -10 -1 -18 -5 -18 -9 0 -4 -15 -10
-32 -14 -18 -4 -35 -9 -38 -10 -3 -1 -18 -7 -33 -13 -16 -7 -32 -12 -36 -12
-9 0 -171 -64 -231 -92 -60 -27 -93 -41 -108 -44 -7 -1 -19 -8 -27 -14 -12
-10 -150 -79 -165 -83 -10 -2 -246 -151 -276 -173 -17 -13 -35 -24 -40 -24 -5
0 -15 -9 -22 -20 -7 -11 -19 -20 -27 -20 -8 0 -15 -3 -15 -7 0 -5 -19 -21 -41
-38 -45 -32 -93 -100 -84 -115 4 -6 2 -10 -2 -10 -8 0 -9 -63 -3 -80 1 -3 2
-9 1 -13 -3 -16 42 -69 80 -97 26 -18 50 -27 69 -26 17 1 30 -1 30 -5 0 -4 13
-4 29 1 16 4 32 6 35 2 3 -3 6 0 6 6 0 7 6 12 13 12 7 0 22 8 33 19 29 26 231
171 239 171 4 0 19 8 33 19 35 24 88 54 187 104 44 23 83 46 87 51 4 6 8 7 8
2 0 -5 7 -3 15 4 8 7 15 10 15 7 0 -3 27 8 61 24 34 17 70 32 80 34 11 2 34
11 52 20 18 9 39 18 47 20 8 2 60 19 114 39 55 19 104 32 108 30 4 -3 8 0 8 5
0 6 3 10 8 10 4 -1 9 0 12 1 3 1 18 4 34 6 16 3 37 9 45 13 9 5 43 15 76 22
71 15 74 16 78 19 1 1 9 3 17 5 8 2 26 6 40 9 14 3 36 8 50 11 25 5 56 11 115
20 17 3 50 9 75 14 86 18 125 23 241 35 20 2 63 7 95 10 32 4 88 9 124 12 36
3 77 6 93 8 15 1 27 -2 27 -7 0 -4 6 -5 13 0 18 12 410 13 425 1 8 -7 12 -7
12 1 0 7 3 10 8 7 4 -2 50 -7 102 -11 124 -9 198 -15 235 -20 17 -2 50 -6 75
-9 25 -3 56 -7 70 -10 14 -3 41 -7 60 -10 19 -3 60 -10 90 -16 30 -6 70 -13
87 -16 29 -4 123 -25 178 -40 11 -3 29 -7 40 -9 11 -2 20 -4 20 -5 0 -1 8 -3
18 -6 9 -2 23 -6 30 -8 6 -2 27 -7 45 -11 17 -4 32 -12 32 -17 0 -5 5 -6 10
-3 9 5 131 -31 185 -55 17 -7 59 -22 75 -25 3 -1 22 -9 44 -18 21 -9 41 -17
43 -17 6 0 53 -21 130 -57 29 -13 56 -25 60 -25 4 -1 25 -12 46 -25 20 -13 37
-20 37 -17 0 4 8 0 18 -8 9 -8 43 -28 74 -44 32 -16 58 -32 58 -36 0 -5 5 -8
11 -8 6 0 42 -21 81 -47 40 -27 79 -52 87 -58 9 -5 30 -21 47 -35 63 -50 89
-68 98 -68 5 0 12 -4 15 -9 13 -20 86 -30 123 -17 20 7 39 10 42 7 3 -4 6 -2
6 4 0 5 10 14 23 20 12 6 29 23 37 39 8 16 19 32 23 35 5 3 9 31 9 61 2 58
-22 125 -48 135 -8 3 -11 9 -8 14 3 5 0 9 -7 9 -6 0 -32 17 -58 39 -25 21 -72
55 -103 76 -32 21 -58 42 -58 46 0 5 -6 9 -13 9 -7 0 -28 11 -48 24 -123 84
-529 286 -574 286 -8 0 -15 5 -15 11 0 6 -7 9 -15 5 -8 -3 -15 0 -15 6 0 6 -3
9 -6 5 -4 -3 -24 3 -45 14 -22 11 -39 17 -39 14 0 -3 -17 2 -37 11 -21 9 -42
17 -48 18 -5 2 -17 6 -25 9 -13 5 -97 29 -110 31 -3 1 -11 5 -17 9 -7 5 -13 6
-13 2 0 -3 -16 1 -35 9 -19 8 -35 13 -35 11 0 -2 -18 2 -40 10 -22 8 -40 12
-40 10 0 -2 -15 1 -32 6 -36 11 -57 17 -89 24 -11 2 -28 6 -37 9 -9 3 -33 8
-52 10 -19 3 -44 7 -55 9 -33 8 -138 27 -170 31 -16 3 -30 5 -30 6 0 2 -26 5
-115 13 -14 1 -28 7 -32 12 -5 6 -8 5 -8 -3 0 -7 -5 -10 -12 -6 -12 7 -67 15
-130 17 -21 1 -38 4 -38 7 0 7 -82 10 -422 13 -159 2 -288 1 -288 -2z"/>
</g>
</svg>
